#!OML:ASF F:\VICON\USERDATA\INSTALL\rory3\rory3.ASF
:FULLY-SPECIFIED
:DEGREES
16
root 1.45878 17.8287 -16.0423 5.51656 -5.12356 0.286197
lowerback 6.43734 -0.112524 -1.49408
upperback 0.351662 -0.19287 1.97322
thorax -3.236 -0.0611727 2.89745
lowerneck -16.0013 -2.36996 -8.89835
upperneck 26.8781 -1.62005 2.70286
head 11.5296 -1.30855 2.27358
rclavicle -1.53064e-014 -1.66979e-014
rhumerus -34.6142 -9.72157 -79.1174
rradius 31.438
rwrist 5.18514
rhand -11.544 15.5903
rfingers 7.12502
rthumb 14.4964 -13.8833
lclavicle -1.53064e-014 -1.66979e-014
lhumerus -31.7619 11.7373 83.8607
lradius 31.6183
lwrist -3.56267
lhand -17.2588 30.603
lfingers 7.12502
lthumb 8.98564 60.3917
rfemur -13.041 5.49647 19.5366
rtibia 22.156
rfoot -9.65875 -7.94151
rtoes 3.26274
lfemur -13.2353 -1.1757 -23.5033
ltibia 21.2748
lfoot -10.4808 5.42718
ltoes 1.25651
17
root 1.44747 17.8294 -16.0449 5.51867 -5.22761 0.267897
lowerback 6.53225 -0.0110189 -1.47184
upperback 0.36357 -0.0564199 1.98149
thorax -3.28529 0.00693052 2.88163
lowerneck -15.8911 -2.44274 -8.94276
upperneck 26.8081 -1.7386 2.75969
head 11.4897 -1.35794 2.28433
rclavicle -5.96354e-016 1.63003e-014
rhumerus -34.5714 -9.83176 -79.0158
rradius 31.4978
rwrist 5.27157
rhand -11.7832 16.3119
rfingers 7.12502
rthumb 14.2659 -13.1781
lclavicle -5.96354e-016 1.63003e-014
lhumerus -31.789 11.5388 83.9155
lradius 31.8062
lwrist -3.75028
lhand -16.3752 31.5068
lfingers 7.12502
lthumb 9.83813 61.2569
rfemur -13.0942 5.50997 19.5861
rtibia 22.181
rfoot -9.63678 -7.8779
rtoes 2.79528
lfemur -13.2585 -1.3463 -23.4304
ltibia 21.1797
lfoot -10.2402 5.62523
ltoes 1.90983
18
root 1.43131 17.8286 -16.0516 5.4753 -5.12359 0.190312
lowerback 6.71462 0.00270773 -1.46207
upperback 0.401336 -0.0353075 2.08259
thorax -3.34976 0.0183749 2.98019
lowerneck -16.0431 -2.51359 -9.10887
upperneck 26.8999 -1.80246 2.85273
head 11.5636 -1.39306 2.33845
rclavicle -3.27995e-015 7.95139e-016
rhumerus -34.3876 -9.74194 -78.9003
rradius 31.4485
rwrist 5.30705
rhand -11.7786 16.3056
rfingers 7.12502
rthumb 14.2704 -13.1841
lclavicle -3.27995e-015 7.95139e-016
lhumerus -31.6934 11.4037 84.0397
lradius 31.9729
lwrist -4.11572
lhand -14.8802 33.105
lfingers 7.12502
lthumb 11.2803 62.7816
rfemur -13.0548 5.6173 19.7133
rtibia 22.2171
rfoot -9.72613 -7.9605
rtoes 4.05899
lfemur -13.2021 -1.29101 -23.2815
ltibia 21.0719
lfoot -10.1569 5.46453
ltoes 1.96279
19
root 1.41651 17.8291 -16.0567 5.46224 -4.93725 0.213895
lowerback 6.81469 -0.045615 -1.54993
upperback 0.420609 -0.104479 2.15777
thorax -3.38137 -0.0139809 3.11528
lowerneck -15.9923 -2.54612 -9.22899
upperneck 26.8686 -1.82988 2.8887
head 11.5458 -1.41259 2.36783
rclavicle -9.54166e-015 -6.36111e-015
rhumerus -34.2449 -9.45486 -78.8843
rradius 31.4634
rwrist 5.14585
rhand -11.7371 15.3286
rfingers 7.12502
rthumb 14.3104 -14.1582
lclavicle -9.54166e-015 -6.36111e-015
lhumerus -31.5887 11.2843 84.1357
lradius 31.9775
lwrist -4.2048
lhand -14.0651 33.7783
lfingers 7.12502
lthumb 12.0664 63.4104
rfemur -13.0319 5.6589 19.7325
rtibia 22.2494
rfoot -9.85287 -8.04679
rtoes 5.79757
lfemur -13.2061 -1.2554 -23.2472
ltibia 20.9987
lfoot -10.0997 5.2805
ltoes 1.92182
20
root 1.40575 17.8312 -16.0581 5.47894 -4.77985 0.279166
lowerback 6.80442 -0.0954093 -1.63218
upperback 0.399695 -0.176088 2.1787
thorax -3.3923 -0.0478025 3.19053
lowerneck -15.8473 -2.55855 -9.18841
upperneck 26.9492 -1.85995 2.83419
head 11.5492 -1.43165 2.3378
rclavicle 8.15017e-015 1.27222e-014
rhumerus -34.196 -9.17591 -78.9087
rradius 31.59
rwrist 5.05842
rhand -11.9948 15.1138
rfingers 7.12502
rthumb 14.062 -14.3905
lclavicle 8.15017e-015 1.27222e-014
lhumerus -31.6349 11.2083 84.1626
lradius 31.9059
lwrist -4.15599
lhand -14.1924 33.3659
lfingers 7.12502
lthumb 11.9436 63.0052
rfemur -13.0574 5.56116 19.7138
rtibia 22.2695
rfoot -9.84225 -8.10531
rtoes 5.80847
lfemur -13.2255 -1.39064 -23.2722
ltibia 20.9804
lfoot -10.0628 5.27456
ltoes 2.26507
21
root 1.39593 17.8335 -16.058 5.49479 -4.58322 0.284144
lowerback 6.70516 -0.183454 -1.64501
upperback 0.428894 -0.292229 2.22972
thorax -3.29828 -0.106695 3.26062
lowerneck -15.6824 -2.52774 -9.18382
upperneck 27.0167 -1.82642 2.80177
head 11.5395 -1.4228 2.33132
rclavicle 5.86415e-015 3.26007e-014
rhumerus -34.0315 -8.8293 -78.9272
rradius 31.5751
rwrist 4.73747
rhand -11.9191 14.4023
rfingers 7.12502
rthumb 14.135 -15.0968
lclavicle 5.86415e-015 3.26007e-014
lhumerus -31.7546 11.3178 84.163
lradius 32.0303
lwrist -4.49261
lhand -13.9419 33.083
lfingers 7.12502
lthumb 12.1851 62.7081
rfemur -13.0664 5.42982 19.7718
rtibia 22.2775
rfoot -9.75837 -8.2011
rtoes 5.24288
lfemur -13.2453 -1.62003 -23.2198
ltibia 20.9847
lfoot -9.99561 5.28382
ltoes 2.55173
22
root 1.38534 17.8319 -16.0596 5.43928 -4.34319 0.297399
lowerback 6.76721 -0.267913 -1.6878
upperback 0.403196 -0.40491 2.3224
thorax -3.35106 -0.160425 3.39296
lowerneck -15.3125 -2.47674 -9.2799
upperneck 26.9532 -1.7601 2.77892
head 11.438 -1.40606 2.34905
rclavicle 6.36111e-015 3.18055e-015
rhumerus -34.0478 -8.6067 -78.7551
rradius 31.5348
rwrist 4.59936
rhand -11.5323 13.9578
rfingers 7.12502
rthumb 14.5077 -15.515
lclavicle 6.36111e-015 3.18055e-015
lhumerus -32.045 11.3213 84.2513
lradius 32.2603
lwrist -4.86486
lhand -13.7374 33.3096
lfingers 7.12502
lthumb 12.3823 62.9229
rfemur -12.9639 5.22216 19.8677
rtibia 22.2578
rfoot -9.63965 -8.33883
rtoes 3.60655
lfemur -13.2418 -1.75358 -23.1813
ltibia 21.0366
lfoot -9.96964 5.20519
ltoes 2.52327
23
root 1.37337 17.828 -16.0608 5.37378 -4.23077 0.330511
lowerback 6.89418 -0.269082 -1.73858
upperback 0.329241 -0.408929 2.36408
thorax -3.49803 -0.158214 3.46803
lowerneck -15.0577 -2.47138 -9.31643
upperneck 27.0155 -1.77431 2.79204
head 11.4126 -1.41743 2.35977
rclavicle -1.19271e-015 -8.74653e-015
rhumerus -34.1582 -8.89252 -78.4597
rradius 31.4538
rwrist 4.82932
rhand -11.3645 14.3561
rfingers 7.12502
rthumb 14.6693 -15.105
lclavicle -1.19271e-015 -8.74653e-015
lhumerus -32.3399 11.2359 84.2575
lradius 32.3381
lwrist -5.51721
lhand -13.4019 33.6634
lfingers 7.12502
lthumb 12.7058 63.2568
rfemur -12.8597 5.13287 19.9197
rtibia 22.2476
rfoot -9.55064 -8.42703
rtoes 2.30193
lfemur -13.2076 -1.7735 -23.182
ltibia 21.1258
lfoot -10.0223 5.15401
ltoes 2.35198
24
root 1.36199 17.8269 -16.0647 5.36394 -4.25096 0.315418
lowerback 7.00256 -0.205792 -1.71112
upperback 0.299798 -0.322315 2.37716
thorax -3.59576 -0.113636 3.45934
lowerneck -15.0878 -2.56267 -9.46346
upperneck 27.1993 -1.92076 2.99738
head 11.5032 -1.4773 2.44253
rclavicle 8.24956e-015 -2.38542e-015
rhumerus -34.1067 -9.40702 -78.1729
rradius 31.4066
rwrist 5.06707
rhand -11.3515 14.2523
rfingers 7.12502
rthumb 14.6819 -15.2079
lclavicle 8.24956e-015 -2.38542e-015
lhumerus -32.4141 11.0808 84.2888
lradius 32.1179
lwrist -5.56105
lhand -13.9754 31.9549
lfingers 7.12502
lthumb 12.1528 61.5819
rfemur -12.8404 5.1964 19.9583
rtibia 22.2325
rfoot -9.63927 -8.45672
rtoes 2.42337
lfemur -13.2285 -1.7858 -23.1305
ltibia 21.2657
lfoot -10.1046 5.17756
ltoes 2.49554
25
root 1.34941 17.8257 -16.0691 5.35969 -4.2369 0.288343
lowerback 7.0801 -0.220516 -1.77474
upperback 0.270164 -0.344198 2.45816
thorax -3.6677 -0.121333 3.58343
lowerneck -15.0516 -2.56786 -9.51514
upperneck 27.3385 -1.92514 3.01808
head 11.5511 -1.48584 2.46048
rclavicle -1.49089e-015 1.59028e-015
rhumerus -34.1047 -9.45121 -78.0342
rradius 31.7554
rwrist 5.15534
rhand -11.4071 14.2111
rfingers 7.12502
rthumb 14.6282 -15.253
lclavicle -1.49089e-015 1.59028e-015
lhumerus -32.5682 11.1398 84.3098
lradius 32.1363
lwrist -5.76594
lhand -14.1926 31.8495
lfingers 7.12502
lthumb 11.9434 61.4888
rfemur -12.8354 5.25098 20.0298
rtibia 22.2149
rfoot -9.68171 -8.52513
rtoes 2.32029
lfemur -13.3048 -1.83065 -23.0498
ltibia 21.4362
lfoot -10.2272 5.21521
ltoes 2.54344
26
root 1.33829 17.824 -16.0685 5.37919 -4.21747 0.164767
lowerback 7.02682 -0.248805 -1.72166
upperback 0.288153 -0.373897 2.55592
thorax -3.61667 -0.137274 3.6575
lowerneck -15.0358 -2.54924 -9.39716
upperneck 27.4426 -1.89356 2.87912
head 11.5833 -1.4795 2.39465
rclavicle 6.16232e-015 -1.98785e-014
rhumerus -34.0789 -9.31492 -77.9688
rradius 32.1308
rwrist 5.08846
rhand -11.4976 14.6228
rfingers 7.12502
rthumb 14.5411 -14.8476
lclavicle 6.16232e-015 -1.98785e-014
lhumerus -32.7466 11.1462 84.3406
lradius 32.462
lwrist -6.15347
lhand -13.4819 33.5597
lfingers 7.12502
lthumb 12.6287 63.158
rfemur -12.8446 5.32483 20.2123
rtibia 22.2109
rfoot -9.62785 -8.58473
rtoes 2.51292
lfemur -13.405 -1.89389 -22.8755
ltibia 21.6065
lfoot -10.3531 5.3604
ltoes 1.99095
